<svg width="14" height="14" viewBox="0 0 14 14" fill="none" xmlns="http://www.w3.org/2000/svg">
<path d="M6.99995 10.5L7.69995 9.1V5.5006C8.90465 5.1877 9.79995 4.1006 9.79995 2.8C9.79995 1.2558 8.54415 0 6.99995 0C5.45575 0 4.19995 1.2558 4.19995 2.8C4.19995 4.1006 5.09525 5.1877 6.29995 5.5006V9.1L6.99995 10.5ZM5.59995 2.8C5.59995 2.0279 6.22785 1.4 6.99995 1.4C7.77205 1.4 8.39995 2.0279 8.39995 2.8C8.39995 3.5721 7.77205 4.2 6.99995 4.2C6.22785 4.2 5.59995 3.5721 5.59995 2.8Z" fill="white"/>
<path d="M9.9869 5.99409L9.6138 7.34369C11.4275 7.84489 12.6 8.80879 12.6 9.79999C12.6 11.1244 10.3005 12.6 7 12.6C3.6995 12.6 1.4 11.1244 1.4 9.79999C1.4 8.80879 2.5725 7.84489 4.3869 7.34299L4.0138 5.99339C1.5379 6.67799 0 8.13609 0 9.79999C0 12.1548 3.0751 14 7 14C10.9249 14 14 12.1548 14 9.79999C14 8.13609 12.4621 6.67799 9.9869 5.99409V5.99409Z" fill="white"/>
</svg>
