<svg width="10" height="15" viewBox="0 0 10 15" fill="none" xmlns="http://www.w3.org/2000/svg">
<path d="M2.43883 14.9571C2.33119 14.9109 2.24175 14.8294 2.18461 14.7256C2.12746 14.6218 2.10588 14.5016 2.12325 14.3839L3.0805 8.0358H0.540107C0.459569 8.03801 0.37961 8.02134 0.306399 7.98709C0.233187 7.95283 0.168681 7.9019 0.117857 7.83823C0.0670328 7.77456 0.0312493 7.69985 0.0132674 7.61986C-0.00471439 7.53987 -0.00441384 7.45674 0.0141457 7.37688L1.59203 0.412686C1.61979 0.292832 1.68725 0.186381 1.78305 0.111251C1.87885 0.036121 1.99713 -0.00309958 2.11799 0.000191468H7.37761C7.45618 -8.06562e-05 7.53382 0.0175825 7.60481 0.0518831C7.67581 0.0861837 7.73835 0.13625 7.78786 0.198403C7.83806 0.261258 7.87361 0.334894 7.89183 0.413766C7.91005 0.492639 7.91047 0.574694 7.89305 0.653755L6.98313 4.82156H9.48145C9.58003 4.82136 9.67668 4.84938 9.76037 4.90242C9.84407 4.95546 9.91144 5.03139 9.95482 5.12156C9.99251 5.20809 10.007 5.30326 9.99685 5.39736C9.98668 5.49146 9.95222 5.58114 9.89696 5.65726L3.05946 14.7643C3.01325 14.8341 2.95155 14.8918 2.87936 14.9327C2.80717 14.9737 2.72652 14.9967 2.64395 15C2.57357 14.9987 2.50404 14.9841 2.43883 14.9571ZM5.66823 5.89297L6.72015 1.07161H2.53876L1.20282 6.96439H4.31125L3.47497 12.4715L8.42953 5.89297H5.66823Z" fill="white"/>
</svg>
