<svg width="23" height="23" viewBox="0 0 23 23" fill="none" xmlns="http://www.w3.org/2000/svg">
<path d="M5.75 2.875C5.75 3.6375 5.4471 4.36877 4.90793 4.90793C4.36877 5.4471 3.6375 5.75 2.875 5.75C2.1125 5.75 1.38123 5.4471 0.842068 4.90793C0.302901 4.36877 0 3.6375 0 2.875C0 2.1125 0.302901 1.38123 0.842068 0.842068C1.38123 0.302901 2.1125 0 2.875 0C3.6375 0 4.36877 0.302901 4.90793 0.842068C5.4471 1.38123 5.75 2.1125 5.75 2.875V2.875ZM5.75 11.5C5.75 12.2625 5.4471 12.9938 4.90793 13.5329C4.36877 14.0721 3.6375 14.375 2.875 14.375C2.1125 14.375 1.38123 14.0721 0.842068 13.5329C0.302901 12.9938 0 12.2625 0 11.5C0 10.7375 0.302901 10.0062 0.842068 9.46707C1.38123 8.9279 2.1125 8.625 2.875 8.625C3.6375 8.625 4.36877 8.9279 4.90793 9.46707C5.4471 10.0062 5.75 10.7375 5.75 11.5ZM2.875 23C3.6375 23 4.36877 22.6971 4.90793 22.1579C5.4471 21.6188 5.75 20.8875 5.75 20.125C5.75 19.3625 5.4471 18.6312 4.90793 18.0921C4.36877 17.5529 3.6375 17.25 2.875 17.25C2.1125 17.25 1.38123 17.5529 0.842068 18.0921C0.302901 18.6312 0 19.3625 0 20.125C0 20.8875 0.302901 21.6188 0.842068 22.1579C1.38123 22.6971 2.1125 23 2.875 23V23ZM14.375 2.875C14.375 3.6375 14.0721 4.36877 13.5329 4.90793C12.9938 5.4471 12.2625 5.75 11.5 5.75C10.7375 5.75 10.0062 5.4471 9.46707 4.90793C8.9279 4.36877 8.625 3.6375 8.625 2.875C8.625 2.1125 8.9279 1.38123 9.46707 0.842068C10.0062 0.302901 10.7375 0 11.5 0C12.2625 0 12.9938 0.302901 13.5329 0.842068C14.0721 1.38123 14.375 2.1125 14.375 2.875V2.875ZM11.5 14.375C12.2625 14.375 12.9938 14.0721 13.5329 13.5329C14.0721 12.9938 14.375 12.2625 14.375 11.5C14.375 10.7375 14.0721 10.0062 13.5329 9.46707C12.9938 8.9279 12.2625 8.625 11.5 8.625C10.7375 8.625 10.0062 8.9279 9.46707 9.46707C8.9279 10.0062 8.625 10.7375 8.625 11.5C8.625 12.2625 8.9279 12.9938 9.46707 13.5329C10.0062 14.0721 10.7375 14.375 11.5 14.375ZM14.375 20.125C14.375 20.8875 14.0721 21.6188 13.5329 22.1579C12.9938 22.6971 12.2625 23 11.5 23C10.7375 23 10.0062 22.6971 9.46707 22.1579C8.9279 21.6188 8.625 20.8875 8.625 20.125C8.625 19.3625 8.9279 18.6312 9.46707 18.0921C10.0062 17.5529 10.7375 17.25 11.5 17.25C12.2625 17.25 12.9938 17.5529 13.5329 18.0921C14.0721 18.6312 14.375 19.3625 14.375 20.125V20.125ZM20.125 5.75C20.8875 5.75 21.6188 5.4471 22.1579 4.90793C22.6971 4.36877 23 3.6375 23 2.875C23 2.1125 22.6971 1.38123 22.1579 0.842068C21.6188 0.302901 20.8875 0 20.125 0C19.3625 0 18.6312 0.302901 18.0921 0.842068C17.5529 1.38123 17.25 2.1125 17.25 2.875C17.25 3.6375 17.5529 4.36877 18.0921 4.90793C18.6312 5.4471 19.3625 5.75 20.125 5.75V5.75ZM23 11.5C23 12.2625 22.6971 12.9938 22.1579 13.5329C21.6188 14.0721 20.8875 14.375 20.125 14.375C19.3625 14.375 18.6312 14.0721 18.0921 13.5329C17.5529 12.9938 17.25 12.2625 17.25 11.5C17.25 10.7375 17.5529 10.0062 18.0921 9.46707C18.6312 8.9279 19.3625 8.625 20.125 8.625C20.8875 8.625 21.6188 8.9279 22.1579 9.46707C22.6971 10.0062 23 10.7375 23 11.5ZM20.125 23C20.8875 23 21.6188 22.6971 22.1579 22.1579C22.6971 21.6188 23 20.8875 23 20.125C23 19.3625 22.6971 18.6312 22.1579 18.0921C21.6188 17.5529 20.8875 17.25 20.125 17.25C19.3625 17.25 18.6312 17.5529 18.0921 18.0921C17.5529 18.6312 17.25 19.3625 17.25 20.125C17.25 20.8875 17.5529 21.6188 18.0921 22.1579C18.6312 22.6971 19.3625 23 20.125 23V23Z" fill="white"/>
</svg>
